<svg xmlns="http://www.w3.org/2000/svg" xmlns:xlink="http://www.w3.org/1999/xlink" viewBox="0 0 494.5 194.63"><defs><style>.cls-1{fill:none;}.cls-2{clip-path:url(#clip-path);}.cls-3{fill:#cda26f;}</style><clipPath id="clip-path" transform="translate(-13.8 -41.9)"><polygon class="cls-1" points="0 0 0 0 508.3 0 508.3 236.6 0 236.6 0 0"/></clipPath></defs><g id="Layer_2" data-name="Layer 2"><g id="Layer_1-2" data-name="Layer 1"><g class="cls-2"><polygon class="cls-3" points="426.3 56.3 487.4 56.3 487.4 57.8 426.9 57.8 419.8 64.8 398 64.8 374.7 88.1 262.4 88.1 234 116.5 233 115.4 261.8 86.6 374.1 86.6 397.3 63.3 419.2 63.3 426.3 56.3"/><path class="cls-3" d="M249.4,159.8a2.83,2.83,0,1,1,0-4A2.84,2.84,0,0,1,249.4,159.8Z" transform="translate(-13.8 -41.9)"/><circle class="cls-3" cx="487.3" cy="57" r="2.8"/></g><g class="cls-2"><polygon class="cls-3" points="151.6 0 383.3 0 432.5 49.2 470 49.2 482.2 37.1 483.3 38.1 470.7 50.7 431.9 50.7 382.6 1.5 152.2 1.5 106.7 46.9 31.6 46.9 31.6 45.4 106.1 45.4 151.6 0"/><circle class="cls-3" cx="45.5" cy="88.1" r="2.8" transform="translate(-62.55 77) rotate(-80.78)"/><path class="cls-3" d="M498.4,81.6a2.83,2.83,0,1,0-4,0A2.84,2.84,0,0,0,498.4,81.6Z" transform="translate(-13.8 -41.9)"/></g><g class="cls-2"><polygon class="cls-3" points="335.4 0.2 336.4 1.2 309.5 28.2 184.3 28.2 151.7 60.8 53 60.8 53 59.3 151 59.3 183.7 26.7 308.8 26.7 335.4 0.2"/><path class="cls-3" d="M66.9,99.2a2.8,2.8,0,0,0,0,5.6,2.86,2.86,0,0,0,2.8-2.8A2.73,2.73,0,0,0,66.9,99.2Z" transform="translate(-13.8 -41.9)"/></g><g class="cls-2"><polygon class="cls-3" points="345.2 27.8 410.8 27.8 410.8 29.3 345.8 29.3 316.4 58.7 204.6 58.7 162.1 101.2 2.7 101.2 2.7 99.7 161.5 99.7 204 57.2 315.8 57.2 345.2 27.8"/><path class="cls-3" d="M16.6,139.5a2.8,2.8,0,0,0-2.8,2.8,2.8,2.8,0,0,0,5.6,0A2.8,2.8,0,0,0,16.6,139.5Z" transform="translate(-13.8 -41.9)"/></g><g class="cls-2"><polygon class="cls-3" points="354.3 40.6 423.6 40.6 423.6 42.1 354.9 42.1 329 68 228.4 68 228.4 66.5 328.4 66.5 354.3 40.6"/><path class="cls-3" d="M242.3,106.4a2.8,2.8,0,0,0-2.8,2.8,2.8,2.8,0,1,0,5.6,0A2.8,2.8,0,0,0,242.3,106.4Z" transform="translate(-13.8 -41.9)"/></g><g class="cls-2"><polygon class="cls-3" points="340.4 86.6 341.5 87.6 309.7 119.4 254.4 119.4 235.3 138.5 78.1 138.5 78.1 137 234.6 137 253.7 117.9 309.1 117.9 340.4 86.6"/><circle class="cls-3" cx="78.2" cy="137.8" r="2.8"/></g><g class="cls-2"><polygon class="cls-3" points="306.9 86.9 308 88 294.7 101.2 273.8 101.2 273.8 99.7 294.1 99.7 306.9 86.9"/><path class="cls-3" d="M287.8,139.5a2.8,2.8,0,0,0-2.8,2.8,2.8,2.8,0,1,0,2.8-2.8Z" transform="translate(-13.8 -41.9)"/></g><g class="cls-2"><polygon class="cls-3" points="184.4 77 215.9 77 228.9 90 227.8 91.1 215.2 78.5 184.4 78.5 184.4 77"/><path class="cls-3" d="M240.1,134.3a2.83,2.83,0,1,0,0-4A2.84,2.84,0,0,0,240.1,134.3Z" transform="translate(-13.8 -41.9)"/></g><g class="cls-2"><polygon class="cls-3" points="188 44.9 253.3 44.9 265.6 57.2 264.5 58.3 252.7 46.4 188.6 46.4 147.9 87 88.8 87 88.8 85.5 147.3 85.5 188 44.9"/><path class="cls-3" d="M102.7,125.4a2.8,2.8,0,1,0,0,5.6,2.86,2.86,0,0,0,2.8-2.8A2.73,2.73,0,0,0,102.7,125.4Z" transform="translate(-13.8 -41.9)"/></g><g class="cls-2"><polygon class="cls-3" points="159.1 10.7 268.8 10.7 285.1 26.9 284 28 268.2 12.2 159.7 12.2 131.6 40.3 130.5 39.2 159.1 10.7"/><path class="cls-3" d="M143,79.5a2.83,2.83,0,1,0,4,0A2.84,2.84,0,0,0,143,79.5Z" transform="translate(-13.8 -41.9)"/></g><g class="cls-2"><polygon class="cls-3" points="114.5 119.8 198.2 119.8 215.5 137.1 214.5 138.2 197.6 121.3 114.5 121.3 114.5 119.8"/><circle class="cls-3" cx="114.6" cy="120.5" r="2.8"/></g><g class="cls-2"><polygon class="cls-3" points="105.4 100.2 106.4 101.3 94.5 113.3 30 113.3 30 111.8 93.8 111.8 105.4 100.2"/><path class="cls-3" d="M43.9,151.6a2.8,2.8,0,0,0-2.8,2.8,2.8,2.8,0,1,0,5.6,0A2.8,2.8,0,0,0,43.9,151.6Z" transform="translate(-13.8 -41.9)"/></g><g class="cls-2"><polygon class="cls-3" points="342.7 9.9 392.7 9.9 392.7 11.4 343.3 11.4 307.4 47.3 279.9 47.3 279.9 45.8 306.8 45.8 342.7 9.9"/><path class="cls-3" d="M293.8,85.6a2.8,2.8,0,0,0,0,5.6,2.86,2.86,0,0,0,2.8-2.8A2.8,2.8,0,0,0,293.8,85.6Z" transform="translate(-13.8 -41.9)"/></g><g class="cls-2"><polygon class="cls-3" points="9.5 56.5 23.9 70.8 118.3 70.8 133.2 85.8 132.1 86.8 117.6 72.3 23.2 72.3 8.5 57.6 9.5 56.5"/><path class="cls-3" d="M24.9,97a2.83,2.83,0,1,0,0,4A2.84,2.84,0,0,0,24.9,97Z" transform="translate(-13.8 -41.9)"/></g><g class="cls-2"><polygon class="cls-3" points="453 63.3 479 63.3 492.3 76.7 491.3 77.8 478.4 64.8 453.6 64.8 403 115.4 366.2 115.4 326.8 154.7 274.9 154.7 274.9 153.2 326.2 153.2 365.5 113.9 402.4 113.9 453 63.3"/><path class="cls-3" d="M288.9,198.7a2.8,2.8,0,0,1-2.8-2.8,2.8,2.8,0,1,1,2.8,2.8Z" transform="translate(-13.8 -41.9)"/><circle class="cls-3" cx="491.7" cy="77.1" r="2.8"/></g><g class="cls-2"><polygon class="cls-3" points="414.7 76.7 439.9 76.7 439.9 78.2 415.4 78.2 393.2 100.4 371.2 100.4 371.2 98.9 392.5 98.9 414.7 76.7"/><path class="cls-3" d="M385.1,138.7a2.8,2.8,0,0,0-2.8,2.8,2.8,2.8,0,0,0,5.6,0A2.73,2.73,0,0,0,385.1,138.7Z" transform="translate(-13.8 -41.9)"/></g><g class="cls-2"><polygon class="cls-3" points="294.1 129.4 350.3 129.4 350.3 130.9 294.7 130.9 283.1 142.5 251.2 142.5 246 147.7 244.9 146.6 250.5 141 282.5 141 294.1 129.4"/><path class="cls-3" d="M257.4,187a2.83,2.83,0,1,0,4,0A2.84,2.84,0,0,0,257.4,187Z" transform="translate(-13.8 -41.9)"/></g><g class="cls-2"><polygon class="cls-3" points="326.3 101 344.5 101 353 109.5 351.9 110.6 343.9 102.5 326.3 102.5 326.3 101"/><path class="cls-3" d="M364.1,153.9a2.83,2.83,0,1,0,0-4A3,3,0,0,0,364.1,153.9Z" transform="translate(-13.8 -41.9)"/></g><g class="cls-2"><polygon class="cls-3" points="57.3 141.3 66.6 150.7 170 150.7 184.3 165 245.5 165 269 141.4 270.1 142.4 246.1 166.5 183.7 166.5 169.4 152.2 66 152.2 56.3 142.4 57.3 141.3"/><path class="cls-3" d="M72.7,181.9a2.83,2.83,0,1,0,0,4A2.84,2.84,0,0,0,72.7,181.9Z" transform="translate(-13.8 -41.9)"/></g><g class="cls-2"><polygon class="cls-3" points="188.3 97.5 193.9 103.2 245.5 103.2 245.5 104.7 193.3 104.7 187.2 98.6 188.3 97.5"/><path class="cls-3" d="M203.7,138.1a2.83,2.83,0,1,0,0,4A2.84,2.84,0,0,0,203.7,138.1Z" transform="translate(-13.8 -41.9)"/></g><g class="cls-2"><polygon class="cls-3" points="359.5 53 403 53 413.6 63.5 412.5 64.6 402.4 54.5 360.2 54.5 337.9 76.7 277.4 76.7 277.4 75.2 337.3 75.2 359.5 53"/><path class="cls-3" d="M291.4,115a2.8,2.8,0,1,0,0,5.6,2.8,2.8,0,1,0,0-5.6Z" transform="translate(-13.8 -41.9)"/></g><g class="cls-2"><rect class="cls-3" x="361.5" y="72.8" width="26.6" height="1.5"/><path class="cls-3" d="M375.5,112.7a2.8,2.8,0,0,0,0,5.6,2.8,2.8,0,1,0,0-5.6Z" transform="translate(-13.8 -41.9)"/></g><g class="cls-2"><polygon class="cls-3" points="192.2 36.2 234.8 36.2 243.8 45.3 242.7 46.4 234.1 37.7 192.2 37.7 192.2 36.2"/><path class="cls-3" d="M206.2,76.1a2.8,2.8,0,0,0-2.8,2.8,2.8,2.8,0,1,0,2.8-2.8Z" transform="translate(-13.8 -41.9)"/></g><g class="cls-2"><polygon class="cls-3" points="185.6 151 215.5 151 229.6 165.1 228.5 166.2 214.9 152.5 185.6 152.5 185.6 151"/><path class="cls-3" d="M199.6,190.9a2.8,2.8,0,0,0-2.8,2.8,2.8,2.8,0,0,0,5.6,0A2.8,2.8,0,0,0,199.6,190.9Z" transform="translate(-13.8 -41.9)"/></g><g class="cls-2"><polygon class="cls-3" points="157.3 35.6 174.8 35.6 174.8 37.1 157.9 37.1 143 52 117.1 52 117.1 50.5 142.4 50.5 157.3 35.6"/><circle class="cls-3" cx="117.2" cy="51.2" r="2.8"/></g><g class="cls-2"><polygon class="cls-3" points="125.3 110.6 162.7 110.6 171.9 119.8 170.8 120.9 162.1 112.1 125.3 112.1 125.3 110.6"/><path class="cls-3" d="M139.3,150.4a2.8,2.8,0,0,0-2.8,2.8,2.8,2.8,0,1,0,2.8-2.8Z" transform="translate(-13.8 -41.9)"/></g><g class="cls-2"><polygon class="cls-3" points="107.9 14 137.7 14 137.7 15.5 108.5 15.5 92.2 31.8 60.3 31.8 60.3 30.3 91.6 30.3 107.9 14"/><circle class="cls-3" cx="60.4" cy="31" r="2.8"/></g><g class="cls-2"><polygon class="cls-3" points="145.7 151 146.7 152.1 123.7 175.1 26.9 175.1 9.5 192.5 8.5 191.4 26.3 173.6 123.1 173.6 145.7 151"/></g><g class="cls-2"><path class="cls-3" d="M20.9,231.7a2.83,2.83,0,1,0,4,0A2.84,2.84,0,0,0,20.9,231.7Z" transform="translate(-13.8 -41.9)"/></g></g></g></svg>